<svg width="34" height="46" viewBox="0 0 34 46" fill="none" xmlns="http://www.w3.org/2000/svg">
<path d="M13 1.5V0.5H11.7951L12.0171 1.68429L13 1.5ZM21 1.5L21.9829 1.68429L22.2049 0.5H21V1.5ZM18 17.5V18.5H18.8299L18.9829 17.6843L18 17.5ZM16 17.5L15.0171 17.6843L15.1701 18.5H16V17.5ZM24 5L24.3714 4.07152L23.5171 3.72979L23.1056 4.55279L24 5ZM32 14.5L31.7575 15.4701L33.1035 15.8066L32.9971 14.4233L32 14.5ZM23 8.5L22.0194 8.30388L21.9356 8.72317L22.1808 9.07346L23 8.5ZM10 5L10.8944 4.55279L10.4829 3.72979L9.62861 4.07152L10 5ZM2 14.5L1.00295 14.4233L0.896535 15.8066L2.24254 15.4701L2 14.5ZM11 8.5L11.8192 9.07346L12.0644 8.72317L11.9806 8.30388L11 8.5ZM2 18.5L1.91695 17.5035L1 17.5799V18.5H2ZM2 27.5H1V28.0352L1.4453 28.3321L2 27.5ZM6.5 39H5.5V39.546L5.95924 39.8412L6.5 39ZM32 18.5H33V17.5799L32.083 17.5035L32 18.5ZM32 27.5L32.5145 28.3575L33 28.0662V27.5H32ZM27.5 39L28.0408 39.8412L28.5 39.546V39H27.5ZM22.5 13L23.3192 12.4265L22.0617 10.6301L21.5299 12.7575L22.5 13ZM20.5 21V22H21.2808L21.4701 21.2425L20.5 21ZM11.5 13L12.4701 12.7575L11.9383 10.6301L10.6808 12.4265L11.5 13ZM13.5 21L12.5299 21.2425L12.7192 22H13.5V21ZM19 24.5L18.7575 23.5299L18.0582 23.7047L18.0029 24.4233L19 24.5ZM21 24L20.9288 23.0025L20.8419 23.0087L20.7575 23.0299L21 24ZM28 23.5H29V22.426L27.9288 22.5025L28 23.5ZM28 26L28.4049 26.9144L29 26.6509V26H28ZM22.3536 28.5L21.9487 27.5856L21.4306 27.815L21.3611 28.3774L22.3536 28.5ZM20.5 43.5L19.5075 43.3774L19.2459 45.495L21.0408 44.3412L20.5 43.5ZM18 37.5L18.4472 38.3944L18.9536 38.1412L18.9971 37.5767L18 37.5ZM17 38L16.5528 38.8944L17 39.118L17.4472 38.8944L17 38ZM15 24.5L15.9971 24.4233L15.9418 23.7047L15.2425 23.5299L15 24.5ZM13 24L13.2425 23.0299L13.1581 23.0087L13.0712 23.0025L13 24ZM6 23.5L6.07125 22.5025L5 22.426V23.5H6ZM6 26H5V26.6509L5.59515 26.9144L6 26ZM11.6464 28.5L12.6389 28.3774L12.5694 27.815L12.0513 27.5856L11.6464 28.5ZM13.5 43.5L12.9592 44.3412L14.7541 45.495L14.4925 43.3774L13.5 43.5ZM16 37.5L15.0029 37.5767L15.0464 38.1412L15.5528 38.3944L16 37.5ZM13 2.5H21V0.5H13V2.5ZM20.0171 1.31571L17.0171 17.3157L18.9829 17.6843L21.9829 1.68429L20.0171 1.31571ZM18 16.5H16V18.5H18V16.5ZM16.9829 17.3157L13.9829 1.31571L12.0171 1.68429L15.0171 17.6843L16.9829 17.3157ZM23.6286 5.92848C24.7708 6.38536 26.5556 7.39237 28.0886 8.89025C29.6191 10.3857 30.8276 12.2977 31.0029 14.5767L32.9971 14.4233C32.7724 11.5023 31.2309 9.16433 29.4864 7.45975C27.7444 5.75763 25.7292 4.61464 24.3714 4.07152L23.6286 5.92848ZM32.2425 13.5299C31.1872 13.266 29.9556 13.0448 28.5239 12.3003C27.1131 11.5667 25.4829 10.3031 23.8192 7.92654L22.1808 9.07346C24.0171 11.6969 25.8869 13.1833 27.6011 14.0747C29.2944 14.9552 30.8128 15.234 31.7575 15.4701L32.2425 13.5299ZM23.9806 8.69612C24.3728 6.73517 24.7847 5.66667 24.8944 5.44721L23.1056 4.55279C22.882 4.99999 22.4272 6.26483 22.0194 8.30388L23.9806 8.69612ZM9.62861 4.07152C8.27081 4.61464 6.25564 5.75763 4.51363 7.45975C2.7691 9.16433 1.22764 11.5023 1.00295 14.4233L2.99705 14.5767C3.17236 12.2977 4.38089 10.3857 5.91137 8.89025C7.44436 7.39237 9.22919 6.38536 10.3714 5.92848L9.62861 4.07152ZM2.24254 15.4701C3.18724 15.234 4.70557 14.9552 6.39885 14.0747C8.11305 13.1833 9.98285 11.6969 11.8192 9.07346L10.1808 7.92654C8.51715 10.3031 6.88695 11.5667 5.47615 12.3003C4.04443 13.0448 2.81276 13.266 1.75746 13.5299L2.24254 15.4701ZM11.9806 8.30388C11.5728 6.26483 11.118 4.99999 10.8944 4.55279L9.10557 5.44721C9.2153 5.66667 9.62723 6.73517 10.0194 8.69612L11.9806 8.30388ZM1 18.5V27.5H3V18.5H1ZM1.4453 28.3321C4.03349 30.0575 5.5 33.5332 5.5 39H7.5C7.5 33.2668 5.96651 28.9425 2.5547 26.6679L1.4453 28.3321ZM31 18.5V27.5H33V18.5H31ZM31.4855 26.6425C29.9841 27.5433 28.746 29.2324 27.8869 31.3341C27.0198 33.4551 26.5 36.0855 26.5 39H28.5C28.5 36.3145 28.9802 33.9449 29.7381 32.0909C30.504 30.2176 31.5159 28.9567 32.5145 28.3575L31.4855 26.6425ZM21.6808 13.5735C22.9453 15.3799 26.7145 19.063 31.917 19.4965L32.083 17.5035C27.6855 17.137 24.3881 13.9534 23.3192 12.4265L21.6808 13.5735ZM21.5299 12.7575L19.5299 20.7575L21.4701 21.2425L23.4701 13.2425L21.5299 12.7575ZM10.6808 12.4265C9.61194 13.9534 6.31451 17.137 1.91695 17.5035L2.08305 19.4965C7.28549 19.063 11.0547 15.3799 12.3192 13.5735L10.6808 12.4265ZM10.5299 13.2425L12.5299 21.2425L14.4701 20.7575L12.4701 12.7575L10.5299 13.2425ZM20.5 20H13.5V22H20.5V20ZM19.2425 25.4701L21.2425 24.9701L20.7575 23.0299L18.7575 23.5299L19.2425 25.4701ZM21.0712 24.9975L28.0712 24.4975L27.9288 22.5025L20.9288 23.0025L21.0712 24.9975ZM27 23.5V26H29V23.5H27ZM27.5951 25.0856L21.9487 27.5856L22.7584 29.4144L28.4049 26.9144L27.5951 25.0856ZM21.3611 28.3774L19.5075 43.3774L21.4925 43.6226L23.346 28.6226L21.3611 28.3774ZM18.0029 24.4233L17.0029 37.4233L18.9971 37.5767L19.9971 24.5767L18.0029 24.4233ZM17.5528 36.6056L16.5528 37.1056L17.4472 38.8944L18.4472 38.3944L17.5528 36.6056ZM15.2425 23.5299L13.2425 23.0299L12.7575 24.9701L14.7575 25.4701L15.2425 23.5299ZM13.0712 23.0025L6.07125 22.5025L5.92875 24.4975L12.9288 24.9975L13.0712 23.0025ZM5 23.5V26H7V23.5H5ZM5.59515 26.9144L11.2416 29.4144L12.0513 27.5856L6.40485 25.0856L5.59515 26.9144ZM10.654 28.6226L12.5075 43.6226L14.4925 43.3774L12.6389 28.3774L10.654 28.6226ZM14.0029 24.5767L15.0029 37.5767L16.9971 37.4233L15.9971 24.4233L14.0029 24.5767ZM15.5528 38.3944L16.5528 38.8944L17.4472 37.1056L16.4472 36.6056L15.5528 38.3944ZM26.9592 38.1588L19.9592 42.6588L21.0408 44.3412L28.0408 39.8412L26.9592 38.1588ZM5.95924 39.8412L12.9592 44.3412L14.0408 42.6588L7.04076 38.1588L5.95924 39.8412Z" fill="#001819"/>
</svg>
